<svg width="92" height="32" viewBox="0 0 122 34" fill="none" xmlns="http://www.w3.org/2000/svg">
<mask id="mask0" mask-type="alpha" maskUnits="userSpaceOnUse" x="0" y="0" width="17" height="33">
<path fill-rule="evenodd" clip-rule="evenodd" d="M0.000106812 32.9808H16.5908V0.282166H0.000106812V32.9808V32.9808Z" fill="white"/>
</mask>
<g mask="url(#mask0)">
<path fill-rule="evenodd" clip-rule="evenodd" d="M16.5908 0.282166H11.4971C11.487 7.25729 11.4772 11.7749 11.4674 18.75C9.27873 11.9433 7.08757 7.43696 4.89136 0.282166H0.000106812V32.9809C1.65097 32.7443 3.4192 32.5175 5.07202 32.3003C5.07678 25.466 5.08155 21.2648 5.08603 14.4301C7.36066 21.1573 8.75916 25.1252 11.0271 31.5182C12.8051 31.314 14.7585 31.0621 16.5379 30.8802C16.5555 20.681 16.5732 10.4814 16.5908 0.282166" fill="#ED2517"/>
</g>
<path fill-rule="evenodd" clip-rule="evenodd" d="M35.6174 0.282166H21.5061C21.4871 10.3379 21.468 20.3938 21.449 30.4495C26.1694 30.0171 30.8951 29.6637 35.6242 29.3893C35.6267 27.919 35.6292 25.8056 35.632 24.3355C32.5569 24.5259 29.6151 24.7242 26.5506 24.9318C26.5559 22.2283 26.5612 19.9925 26.5665 17.2887C28.8062 17.2498 31.1713 17.2839 33.459 17.2447C33.4619 15.7668 33.4647 13.6458 33.4675 12.1681C31.2004 12.2084 28.8062 12.2132 26.5755 12.2558C26.5808 9.55206 26.5859 8.06904 26.5912 5.36529C27.9947 5.34837 29.37 5.34611 30.7427 5.34611C30.9839 5.34611 31.2248 5.34611 31.4659 5.3464H32.1855C33.3305 5.3464 34.48 5.34499 35.6494 5.33483C35.6522 3.8645 35.6149 1.75222 35.6174 0.282166" fill="#ED2517"/>
<path fill-rule="evenodd" clip-rule="evenodd" d="M54.638 0.304756C49.4583 0.304756 44.1046 0.305038 38.9248 0.30532C38.9226 1.76606 38.9201 3.87017 38.9178 5.33063C39.1433 5.32894 39.3685 5.32837 39.594 5.32837C40.2766 5.32837 40.9591 5.33514 41.642 5.34191C42.324 5.34868 43.0061 5.35545 43.6884 5.35545C43.8631 5.35545 44.0382 5.35488 44.213 5.35404C44.2026 13.461 44.192 20.8654 44.1816 28.9724C45.8442 28.9101 47.6231 28.8577 49.286 28.8151C49.2936 20.7526 49.3011 13.3922 49.3084 5.33006C51.0649 5.32329 52.8796 5.31794 54.6361 5.31455C54.6366 3.87863 54.6372 1.74068 54.638 0.304756" fill="#ED2517"/>
<path fill-rule="evenodd" clip-rule="evenodd" d="M72.1132 0.282166H57.9438C57.9424 9.74752 57.941 19.2123 57.9396 28.6774C58.4875 28.6751 59.0415 28.6743 59.5975 28.6743C60.7305 28.6743 61.8724 28.6785 62.988 28.6873C62.9866 24.6706 62.9855 21.0048 62.9844 16.9878C63.2625 16.9886 63.5435 16.9892 63.8263 16.9892C64.4851 16.9892 65.1545 16.9867 65.8268 16.9838C66.499 16.981 67.174 16.9782 67.8432 16.9782C68.5327 16.9782 69.2159 16.981 69.8839 16.9903C69.8828 15.5504 69.8814 13.4083 69.88 11.9684C69.2492 11.9619 68.6047 11.9597 67.9538 11.9597C67.2564 11.9597 66.5522 11.9622 65.8503 11.9647C65.1495 11.9673 64.4515 11.9698 63.7653 11.9698C63.5028 11.9698 63.2418 11.9695 62.983 11.9687C62.9822 9.38622 62.9819 7.92886 62.981 5.3464C63.5348 5.34724 64.0874 5.34752 64.6383 5.34752C65.1971 5.34752 65.7545 5.34724 66.3116 5.34696C66.8735 5.34668 67.4351 5.3464 67.9969 5.3464C69.3657 5.3464 70.7357 5.34781 72.1177 5.35401C72.1163 3.91076 72.1146 1.72542 72.1132 0.282166" fill="#ED2517"/>
<path fill-rule="evenodd" clip-rule="evenodd" d="M75.4204 0.305008C75.433 9.86147 75.3873 19.4179 75.3997 28.9744C79.9299 29.1445 84.6903 29.3286 89.2147 29.6437C89.2119 28.1736 89.2091 26.0597 89.2065 24.5896C86.3426 24.4198 83.3616 24.2165 80.4954 24.0966C80.4825 15.9123 80.5273 8.48929 80.5144 0.30529C78.8552 0.305008 77.0799 0.305008 75.4204 0.305008" fill="#ED2517"/>
<path fill-rule="evenodd" clip-rule="evenodd" d="M93.3953 0.305855C93.4146 10.1887 93.4339 20.0714 93.4533 29.9545C95.1131 30.0837 96.8303 30.2222 98.4888 30.3708C98.4946 20.356 98.5084 10.3277 98.4893 0.306137C96.8301 0.305855 95.0545 0.305855 93.3953 0.305855" fill="#ED2517"/>
<mask id="mask1" mask-type="alpha" maskUnits="userSpaceOnUse" x="102" y="0" width="19" height="33">
<path fill-rule="evenodd" clip-rule="evenodd" d="M102.339 32.9808H121V0.306389H102.339V32.9808V32.9808Z" fill="white"/>
</mask>
<g mask="url(#mask1)">
<path fill-rule="evenodd" clip-rule="evenodd" d="M102.856 0.306389C104.893 5.30349 106.757 10.3147 108.825 15.6215C106.676 20.7187 104.487 25.7824 102.339 30.672C104.118 30.8489 105.959 31.1075 107.737 31.3069C109.012 28.1578 110.172 25.7336 111.448 22.4996C112.723 25.9446 113.881 28.6063 115.152 32.1624C116.927 32.3942 119.227 32.7268 121 32.9809C118.851 27.1972 116.502 21.1748 114.341 15.7086C116.493 10.5753 118.688 5.67495 120.923 0.308081C119.088 0.308081 117.195 0.307799 115.36 0.307517C113.981 3.62472 113.032 5.75618 111.71 8.91403C110.479 5.62841 109.653 3.50231 108.419 0.306953C106.584 0.306671 104.691 0.306671 102.856 0.306389" fill="#ED2517"/>
</g>
</svg>
