<svg width="24" height="21" viewBox="0 0 24 21" fill="none" xmlns="http://www.w3.org/2000/svg">
<path fill-rule="evenodd" clip-rule="evenodd" d="M21.6578 17.2627C21.1568 17.2627 20.7498 16.8567 20.7498 16.3547V9.7207C20.7498 5.2987 17.5118 1.6417 13.2788 0.967703C13.0388 0.453703 12.5208 0.0957031 11.9168 0.0957031C11.3178 0.0957031 10.8048 0.447703 10.5618 0.953703C6.28476 1.5897 2.99976 5.2667 2.99976 9.7207V16.3547C2.99976 16.8567 2.59376 17.2627 2.09176 17.2627L0.627756 17.3877C0.557756 17.3877 0.499756 17.4447 0.499756 17.5157V20.3457H23.3338V17.5157C23.3338 17.4447 23.2758 17.3877 23.2048 17.3877L21.6578 17.2627Z" fill="white"/>
</svg>
